<svg version="1.1" xmlns="http://www.w3.org/2000/svg" xmlns:xlink="http://www.w3.org/1999/xlink" width="48px" height="48px" viewBox="0,0,256,256"><g fill="#283244" fill-rule="nonzero" stroke="none" stroke-width="1" stroke-linecap="butt" stroke-linejoin="miter" stroke-miterlimit="10" stroke-dasharray="" stroke-dashoffset="0" font-family="none" font-weight="none" font-size="none" text-anchor="none" style="mix-blend-mode: normal"><g transform="scale(5.33333,5.33333)"><path d="M24,4c-7.71455,0 -14,6.28546 -14,14c0,3.46372 1.27261,6.64355 3.35938,9.08594v0.00195h0.00195c0,0 5.78777,6.77868 7.9375,8.83008c1.49926,1.43031 3.90064,1.42952 5.40039,0c2.42986,-2.31697 7.9375,-8.82742 7.94141,-8.83203l0.00195,-0.00391c2.08619,-2.44209 3.35742,-5.61987 3.35742,-9.08203c0,-7.71454 -6.28545,-14 -14,-14zM24,7c6.09345,0 11,4.90654 11,11c0,2.73228 -0.99458,5.21119 -2.64062,7.13672v0.00195h-0.00195c0,0 -5.72524,6.69722 -7.72852,8.60742c-0.37033,0.3533 -0.88944,0.3533 -1.25977,0c-1.65366,-1.57802 -7.72605,-8.60426 -7.73047,-8.60937l-0.00195,-0.00391c-1.64345,-1.92519 -2.63672,-4.4021 -2.63672,-7.13281c0,-6.09345 4.90655,-11 11,-11zM24,12c-1.875,0 -3.47118,0.75713 -4.49609,1.91016c-1.02491,1.15302 -1.50391,2.63151 -1.50391,4.08984c0,1.45833 0.479,2.93682 1.50391,4.08984c1.02491,1.15302 2.62109,1.91016 4.49609,1.91016c1.875,0 3.47118,-0.75713 4.49609,-1.91016c1.02491,-1.15302 1.50391,-2.63151 1.50391,-4.08984c0,-1.45833 -0.479,-2.93682 -1.50391,-4.08984c-1.02491,-1.15302 -2.62109,-1.91016 -4.49609,-1.91016zM24,15c1.125,0 1.77882,0.36787 2.25391,0.90234c0.47509,0.53448 0.74609,1.30599 0.74609,2.09766c0,0.79167 -0.271,1.56318 -0.74609,2.09766c-0.47509,0.53448 -1.12891,0.90234 -2.25391,0.90234c-1.125,0 -1.77882,-0.36787 -2.25391,-0.90234c-0.47509,-0.53448 -0.74609,-1.30599 -0.74609,-2.09766c0,-0.79167 0.271,-1.56318 0.74609,-2.09766c0.47509,-0.53448 1.12891,-0.90234 2.25391,-0.90234zM12.77148,29.44141c-4.545,1.313 -7.77148,3.51159 -7.77148,6.55859c0,5.252 9.558,8 19,8c9.442,0 19,-2.748 19,-8c0,-3.046 -3.22458,-5.24264 -7.76758,-6.55664c-0.578,0.656 -1.36923,1.55048 -2.24023,2.52148c4.426,1.041 7.00781,2.72616 7.00781,4.03516c0,2.039 -6.233,5 -16,5c-9.767,0 -16,-2.961 -16,-5c0,-1.31 2.58653,-2.99806 7.01953,-4.03906c-0.867,-0.965 -1.66405,-1.86053 -2.24805,-2.51953z"></path></g></g></svg>