<svg version="1.1" xmlns="http://www.w3.org/2000/svg" xmlns:xlink="http://www.w3.org/1999/xlink" width="50px" height="50px" viewBox="0,0,256,256"><g fill="#ff6d3b" fill-rule="nonzero" stroke="none" stroke-width="1" stroke-linecap="butt" stroke-linejoin="miter" stroke-miterlimit="10" stroke-dasharray="" stroke-dashoffset="0" font-family="none" font-weight="none" font-size="none" text-anchor="none" style="mix-blend-mode: normal"><g transform="scale(5.12,5.12)"><path d="M15,7c-7.16797,0 -13,5.83203 -13,13c0,14.76172 16.69531,22.04688 22.375,26.78125l0.625,0.53125l0.625,-0.53125c5.67969,-4.73437 22.375,-12.01953 22.375,-26.78125c0,-7.16797 -5.83203,-13 -13,-13c-4.05469,0 -7.61719,1.92578 -10,4.84375c-2.38281,-2.91797 -5.94531,-4.84375 -10,-4.84375zM15,9c3.83594,0 7.1875,1.96875 9.15625,4.9375l0.84375,1.25l0.84375,-1.25c1.96875,-2.96875 5.32031,-4.9375 9.15625,-4.9375c6.08594,0 11,4.91406 11,11c0,12.89844 -14.40625,19.57422 -21,24.78125c-6.59375,-5.20703 -21,-11.88281 -21,-24.78125c0,-6.08594 4.91406,-11 11,-11z"></path></g></g></svg>