<svg version="1.1" xmlns="http://www.w3.org/2000/svg" xmlns:xlink="http://www.w3.org/1999/xlink" width="512px" height="512px" viewBox="0,0,256,256"><g fill="#ffffff" fill-rule="nonzero" stroke="none" stroke-width="1" stroke-linecap="butt" stroke-linejoin="miter" stroke-miterlimit="10" stroke-dasharray="" stroke-dashoffset="0" font-family="none" font-weight="none" font-size="none" text-anchor="none" style="mix-blend-mode: normal"><g transform="scale(0.5,0.5)"><path d="M399.37891,56.25391c-11.7058,0.17121 -22.88408,4.89754 -31.16211,13.17578l-178.40821,178.4082c-1.21999,1.22033 -2.10344,2.73559 -2.56445,4.39844l-23.46289,84.70117c-0.96179,3.47205 0.01846,7.19305 2.56602,9.74062c2.54756,2.54756 6.26857,3.52781 9.74062,2.56602l84.69922,-23.46289c1.66375,-0.46126 3.17973,-1.34542 4.40039,-2.56641l178.4043,-178.41015c17.54561,-17.58557 17.54561,-46.05505 0,-63.64063l-11.73633,-11.73437c-8.60012,-8.60032 -20.3153,-13.35319 -32.47656,-13.17578zM400.40234,76.25c6.50336,0.09517 12.71361,2.72108 17.3125,7.32031l11.73438,11.73633c9.74721,9.76974 9.74721,25.58573 0,35.35547l-10.60547,10.60547l-47.08984,-47.08985l10.60547,-10.60742c4.77788,-4.77822 11.2865,-7.41887 18.04296,-7.32031zM105.22852,95.16016c-27.60122,0.03141 -49.96859,22.39879 -50,50v260.59179c0.03141,27.60122 22.39879,49.96859 50,50h280.58984c27.60122,-0.03141 49.96859,-22.39878 50,-50v-88.79101c0,-5.52285 -4.47715,-10 -10,-10c-5.52285,0 -10,4.47715 -10,10v88.79101c-0.01874,16.56078 -13.43922,29.98126 -30,30h-280.58984c-16.56078,-0.01873 -29.98127,-13.43922 -30,-30v-260.59179c0.01874,-16.56078 13.43923,-29.98127 30,-30h88.79101c5.52285,0 10,-4.47715 10,-10c0,-5.52285 -4.47715,-10 -10,-10zM357.60938,108.32031l47.08984,47.08985l-146.01367,146.01757l-47.08594,-47.09179zM202.19141,273.21289l37.62304,37.62305l-52.03906,14.41601z"></path></g></g></svg>