<svg version="1.1" xmlns="http://www.w3.org/2000/svg" xmlns:xlink="http://www.w3.org/1999/xlink" width="48px" height="48px" viewBox="0,0,256,256"><g fill="#ffffff" fill-rule="nonzero" stroke="none" stroke-width="1" stroke-linecap="butt" stroke-linejoin="miter" stroke-miterlimit="10" stroke-dasharray="" stroke-dashoffset="0" font-family="none" font-weight="none" font-size="none" text-anchor="none" style="mix-blend-mode: normal"><g transform="scale(5.33333,5.33333)"><path d="M11.5,6c-3.01977,0 -5.5,2.48023 -5.5,5.5v25c0,3.01977 2.48023,5.5 5.5,5.5h25c3.01977,0 5.5,-2.48023 5.5,-5.5v-25c0,-3.01977 -2.48023,-5.5 -5.5,-5.5zM11.5,9h25c1.39823,0 2.5,1.10177 2.5,2.5v20.45508l-6.01172,-5.81641c-0.00065,-0.00065 -0.0013,-0.0013 -0.00195,-0.00195c-0.77809,-0.75132 -1.79948,-1.13672 -2.8125,-1.13672c-1.01261,0 -2.03395,0.38539 -2.8125,1.13867l-2.04883,1.98242l-6.17969,-5.97852c-0.77645,-0.75283 -1.79674,-1.14258 -2.81445,-1.14258c-1.01928,0 -2.03737,0.39217 -2.8125,1.14063c-0.00065,0.00065 -0.0013,0.0013 -0.00195,0.00195l-4.50391,4.35742v-15c0,-1.39823 1.10177,-2.5 2.5,-2.5zM30.5,13c-1.375,0 -2.59618,0.56963 -3.37109,1.44141c-0.77491,0.87177 -1.12891,1.97526 -1.12891,3.05859c0,1.08333 0.354,2.18682 1.12891,3.05859c0.77491,0.87177 1.99609,1.44141 3.37109,1.44141c1.375,0 2.59618,-0.56963 3.37109,-1.44141c0.77491,-0.87177 1.12891,-1.97526 1.12891,-3.05859c0,-1.08333 -0.354,-2.18682 -1.12891,-3.05859c-0.77491,-0.87177 -1.99609,-1.44141 -3.37109,-1.44141zM30.5,16c0.625,0 0.90382,0.18037 1.12891,0.43359c0.22509,0.25323 0.37109,0.64974 0.37109,1.06641c0,0.41667 -0.146,0.81318 -0.37109,1.06641c-0.22509,0.25323 -0.50391,0.43359 -1.12891,0.43359c-0.625,0 -0.90382,-0.18037 -1.12891,-0.43359c-0.22509,-0.25323 -0.37109,-0.64974 -0.37109,-1.06641c0,-0.41667 0.146,-0.81318 0.37109,-1.06641c0.22509,-0.25323 0.50391,-0.43359 1.12891,-0.43359zM16.31836,24c0.26028,0 0.51697,0.09366 0.72656,0.29688c0.00065,0.00065 0.0013,0.0013 0.00195,0.00195l6.10742,5.9082l-9.08984,8.79297h-2.56445c-1.39823,0 -2.5,-1.10177 -2.5,-2.5v-5.82617l6.58984,-6.375c0.21292,-0.20559 0.4698,-0.29883 0.72852,-0.29883zM30.17383,28c0.26498,0 0.51866,0.09229 0.72852,0.29492l8.09766,7.83398v0.37109c0,1.39823 -1.10177,2.5 -2.5,2.5h-18.11914l11.06641,-10.70508c0.20745,-0.20071 0.46317,-0.29492 0.72656,-0.29492z"></path></g></g></svg>